<?xml version="1.0" encoding="UTF-8" standalone="no"?> <svg xmlns="http://www.w3.org/2000/svg" viewBox="0 0 64 64"><title>bubble speech</title><g id="_13-bubble_speech" data-name="13-bubble speech"><path d="M42.352,23.062A20.091,20.091,0,0,1,60.7,41.515a19.88,19.88,0,0,1-3.7,13.122,3.58,3.58,0,0,0,1.552,5.4l4.019,1.655A.679.679,0,0,1,62.323,63H41.293c-11.02,0-20.376-8.682-20.536-19.7A20,20,0,0,1,42.352,23.062Z" style="fill:#e86a38"/><path d="M24.757,44.3A20,20,0,0,1,46.352,24.062c.432.034.855.1,1.279.159a19.605,19.605,0,0,0-5.279-1.159A20,20,0,0,0,20.757,43.3c.145,9.991,7.856,18.036,17.506,19.456A20.07,20.07,0,0,1,24.757,44.3Z" style="fill:#8c3717"/><path d="M22.4,1.062A20.089,20.089,0,0,0,4.054,19.515,19.885,19.885,0,0,0,7.749,32.637a3.58,3.58,0,0,1-1.551,5.4L2.179,39.691A.679.679,0,0,0,2.432,41H23.461C34.482,41,43.837,32.318,44,21.3A20,20,0,0,0,22.4,1.062Z" style="fill:#f9b938"/><path d="M6.179,40.658l4.019-1.7a3.712,3.712,0,0,0,1.551-5.534A20.755,20.755,0,0,1,8.054,19.977,20.356,20.356,0,0,1,26.043,1.109a20.427,20.427,0,0,0-3.64-.047A20.089,20.089,0,0,0,4.054,19.515,19.885,19.885,0,0,0,7.749,32.637a3.58,3.58,0,0,1-1.551,5.4L2.179,39.691A.679.679,0,0,0,2.432,41H5.82A.677.677,0,0,1,6.179,40.658Z" style="fill:#f99c16"/><circle cx="14" cy="21" r="3" style="fill:#f2f2f2"/><circle cx="24" cy="21" r="3" style="fill:#f2f2f2"/><circle cx="34" cy="21" r="3" style="fill:#f2f2f2"/><path d="M23.461,42H2.432A1.679,1.679,0,0,1,1.8,38.767l4.019-1.656a2.58,2.58,0,0,0,1.121-3.89A20.74,20.74,0,0,1,3.057,19.442,21.083,21.083,0,0,1,22.325.065h0A20.838,20.838,0,0,1,38.372,5.688,21.062,21.062,0,0,1,45,21.313C44.832,32.72,35.17,42,23.461,42ZM4.055,40H23.461C34.083,40,42.848,31.6,43,21.284A19.053,19.053,0,0,0,37,7.146,18.826,18.826,0,0,0,22.479,2.059h0A19.07,19.07,0,0,0,5.052,19.587,18.764,18.764,0,0,0,8.561,32.053a4.58,4.58,0,0,1-1.982,6.908Z"/><path d="M62.323,64H41.293a21.532,21.532,0,0,1-21.28-17.74,1,1,0,1,1,1.974-.317A19.517,19.517,0,0,0,41.293,62H60.7l-2.523-1.039a4.581,4.581,0,0,1-1.983-6.908A18.765,18.765,0,0,0,59.7,41.587,19.1,19.1,0,0,0,49.016,25.9a1,1,0,1,1,.877-1.8A21.1,21.1,0,0,1,61.7,41.442a20.739,20.739,0,0,1-3.882,13.779,2.581,2.581,0,0,0,1.122,3.89l4.019,1.656A1.679,1.679,0,0,1,62.323,64ZM62.2,62.616h0Z"/><path d="M14,25a4,4,0,1,1,4-4A4,4,0,0,1,14,25Zm0-6a2,2,0,1,0,2,2A2,2,0,0,0,14,19Z"/><path d="M24,25a4,4,0,1,1,4-4A4,4,0,0,1,24,25Zm0-6a2,2,0,1,0,2,2A2,2,0,0,0,24,19Z"/><path d="M34,25a4,4,0,1,1,4-4A4,4,0,0,1,34,25Zm0-6a2,2,0,1,0,2,2A2,2,0,0,0,34,19Z"/></g></svg>